<svg xmlns="http://www.w3.org/2000/svg" viewBox="0 0 512 512" width="35" height="35">
	<style>
		tspan { white-space:pre }
	</style>
	<path id="O " fill="#ff9800" d="M510.9 255.79Q510.9 361.18 435.7 436.38Q361.12 511.57 255.73 511.57Q150.33 511.57 75.13 436.38Q-0.06 361.18 -0.06 255.79Q-0.06 150.39 74.52 75.81Q149.71 0.62 255.73 0.62Q360.51 0.62 435.7 75.81Q510.9 151.01 510.9 255.79ZM425.84 255.79Q425.84 185.52 375.91 135.6Q325.99 85.67 255.73 85.67Q184.85 85.67 134.92 135.6Q85 185.52 85 255.79Q85 326.05 134.92 376.59Q184.85 426.52 255.73 426.52Q325.99 426.52 375.91 376.59Q425.84 326.67 425.84 255.79ZM404.88 255.79Q404.88 317.42 361.12 361.8Q317.36 405.56 255.73 405.56Q193.47 405.56 149.71 361.8Q105.95 317.42 105.95 255.79Q105.95 194.15 149.71 150.39Q193.47 106.63 255.73 106.63Q317.36 106.63 361.12 150.39Q404.88 194.15 404.88 255.79ZM319.83 255.79Q319.83 229.28 300.72 210.79Q282.23 191.69 255.73 191.69Q228.61 191.69 209.5 210.79Q191.01 229.28 191.01 255.79Q191.01 282.29 209.5 301.4Q228.61 320.5 255.73 320.5Q282.23 320.5 300.72 301.4Q319.83 282.29 319.83 255.79Z" />
</svg>